# 3ds Max Wavefront OBJ Exporter v0.97b - (c)2007 guruware
# File Created: 31.01.2015 15:15:02

mtllib RockPart1.mtl

#
# object Box002
#

v  -7.4117 23.5002 7.3146
v  -9.0027 23.5002 12.4690
v  2.0072 47.0004 12.4689
v  3.5982 47.0004 7.3146
v  -18.4216 0.0000 -7.3145
v  -7.4117 23.5002 -7.3145
v  -9.0027 23.5002 -12.4689
v  -20.0126 0.0000 -12.4689
v  3.5982 56.3058 2.4382
v  2.0072 59.5954 4.1563
v  2.0072 59.5954 -4.1563
v  3.5982 56.3058 -2.4382
v  3.5982 57.0004 7.3146
v  2.0072 59.5954 12.4690
v  3.5982 47.0004 -7.3145
v  3.5982 57.0004 -7.3145
v  2.0072 60.5913 -13.4109
v  2.0072 47.0004 -12.4689
v  4.2051 23.5002 16.1022
v  15.2150 47.0004 16.1022
v  4.2051 23.5002 -16.1022
v  -6.8048 0.0000 -16.1022
v  14.2569 73.2012 5.3674
v  14.2569 73.0011 -5.3674
v  14.2569 71.2802 16.1022
v  14.2569 72.2760 -17.0441
v  15.2150 47.0004 -16.1022
v  27.7850 64.5359 4.2678
v  28.4229 47.0004 4.2678
v  28.4229 47.0004 -4.2678
v  27.7850 64.5359 -4.2678
v  6.4031 0.0000 12.8034
v  17.4130 23.5002 12.8034
v  -6.8048 0.0000 16.1022
v  28.4229 47.0004 -12.8033
v  17.4130 23.5002 -12.8033
v  28.4229 47.0004 12.8033
v  27.7850 64.5359 12.8034
v  27.7850 65.5317 -13.7453
v  -18.4216 0.0000 7.3146
v  -20.0126 0.0000 12.4690
v  17.4130 23.5002 4.2678
v  17.4130 23.5002 -4.2678
v  6.4031 0.0000 -12.8033
v  6.4031 0.0000 4.2678
v  6.4031 0.0000 -4.2678
v  15.4585 0.0000 -4.2678
v  15.4585 0.0000 4.2678
# 48 vertices

vn -0.8721 0.4086 -0.2692
vn -0.9328 0.2169 -0.2879
vn -0.9362 0.2002 -0.2890
vn -0.8721 0.4086 0.2692
vn -0.8955 -0.4446 0.0220
vn -0.8834 -0.4679 0.0261
vn -0.8888 -0.4567 -0.0390
vn -0.8955 -0.4446 -0.0220
vn -0.9456 -0.3031 -0.1185
vn -0.9621 -0.1756 -0.2085
vn -0.9366 0.2078 0.2823
vn -0.9574 -0.2769 0.0820
vn -0.9729 -0.1558 0.1709
vn -0.9316 0.2224 0.2876
vn -0.2646 0.0691 0.9619
vn -0.2632 0.1233 0.9568
vn -0.0117 0.0055 0.9999
vn 0.0253 -0.0126 0.9996
vn -0.2632 0.1233 -0.9568
vn -0.0117 0.0055 -0.9999
vn -0.0821 0.0385 -0.9959
vn -0.7414 0.6711 -0.0022
vn -0.7306 0.6817 0.0386
vn -0.7251 0.6886 -0.0084
vn -0.7363 0.6758 0.0339
vn -0.2714 -0.0070 0.9624
vn 0.0121 0.0002 0.9999
vn -0.2511 -0.0527 -0.9665
vn 0.0193 -0.0409 -0.9990
vn 0.0289 -0.0351 -0.9990
vn -0.2650 0.0403 -0.9634
vn 0.9993 0.0364 -0.0000
vn 0.9799 -0.1995 -0.0000
vn 0.9994 0.0357 0.0014
vn 0.2408 -0.1128 0.9640
vn -0.0821 0.0385 0.9959
vn 0.2372 -0.0666 -0.9692
vn 0.2408 -0.1128 -0.9640
vn 0.5308 0.8466 0.0387
vn 0.5057 0.8626 -0.0099
vn 0.5149 0.8559 0.0484
vn 0.5394 0.8421 -0.0000
vn 0.2419 -0.0430 0.9694
vn 0.2410 0.0088 0.9705
vn 0.2168 -0.0421 -0.9753
vn 0.9055 -0.4243 -0.0000
vn -0.7318 0.6803 0.0411
vn -0.7040 0.6991 0.1251
vn -0.6964 0.7163 -0.0445
vn -0.7217 0.6915 0.0322
vn 0.9806 -0.1960 0.0006
vn 0.9994 0.0346 0.0036
vn 0.4988 0.8661 0.0333
vn 0.4562 0.8882 -0.0552
vn 0.4708 0.8684 0.1554
vn 0.5161 0.8546 0.0571
vn 0.0000 -1.0000 -0.0000
# 57 vertex normals

vt 0.1685 0.4641 0.0000
vt 0.1685 0.4276 0.0000
vt 0.3350 0.4276 0.0000
vt 0.3350 0.4641 0.0000
vt 0.0020 0.5677 0.0000
vt 0.1685 0.5677 0.0000
vt 0.1685 0.6043 0.0000
vt 0.0020 0.6043 0.0000
vt 0.4009 0.4986 0.0000
vt 0.4242 0.4865 0.0000
vt 0.4242 0.5454 0.0000
vt 0.4009 0.5332 0.0000
vt 0.4059 0.4641 0.0000
vt 0.4242 0.4276 0.0000
vt 0.3350 0.5677 0.0000
vt 0.4059 0.5677 0.0000
vt 0.4313 0.6109 0.0000
vt 0.3350 0.6043 0.0000
vt 0.1821 0.2500 0.0000
vt 0.3541 0.2473 0.0000
vt 0.3182 0.3271 0.0000
vt 0.1462 0.3299 0.0000
vt 0.1737 0.0261 0.0000
vt 0.2064 0.1073 0.0000
vt 0.0347 0.0978 0.0000
vt 0.0020 0.0167 0.0000
vt 0.5206 0.4779 0.0000
vt 0.5192 0.5539 0.0000
vt 0.1059 0.2158 0.0000
vt 0.0020 0.2582 0.0000
vt 0.4289 0.0020 0.0000
vt 0.5310 0.0484 0.0000
vt 0.3781 0.1168 0.0000
vt 0.3454 0.0356 0.0000
vt 0.9833 0.1233 0.0000
vt 0.8652 0.1233 0.0000
vt 0.8652 0.0658 0.0000
vt 0.9833 0.0658 0.0000
vt 0.4544 0.4042 0.0000
vt 0.2824 0.4070 0.0000
vt 0.4902 0.3244 0.0000
vt 0.4108 0.1980 0.0000
vt 0.2391 0.1885 0.0000
vt 0.6224 0.8362 0.0000
vt 0.6590 0.9258 0.0000
vt 0.5860 0.9488 0.0000
vt 0.5644 0.8546 0.0000
vt 0.1103 0.4098 0.0000
vt 0.0060 0.3583 0.0000
vt 0.5231 0.1482 0.0000
vt 0.0020 0.4641 0.0000
vt 0.0020 0.4276 0.0000
vt 0.5261 0.2445 0.0000
vt 0.7070 0.1233 0.0000
vt 0.7070 0.0658 0.0000
vt 0.0674 0.1790 0.0000
vt 0.7345 0.7322 0.0000
vt 0.8468 0.7245 0.0000
vt 0.8454 0.7954 0.0000
vt 0.7267 0.7852 0.0000
vt 0.7383 0.9007 0.0000
vt 0.7399 0.9917 0.0000
vt 0.6791 1.0168 0.0000
vt 0.9833 0.1807 0.0000
vt 0.8652 0.1807 0.0000
vt 0.8652 0.0083 0.0000
vt 0.9900 0.0020 0.0000
vt 0.7070 0.1807 0.0000
vt 0.5489 0.1807 0.0000
vt 0.5489 0.1233 0.0000
vt 0.5489 0.0083 0.0000
vt 0.7070 0.0083 0.0000
vt 0.5489 0.0658 0.0000
vt 0.6868 0.8158 0.0000
vt 0.5131 0.9719 0.0000
vt 0.5064 0.8729 0.0000
vt 0.8731 0.9480 0.0000
vt 0.8731 0.8925 0.0000
vt 0.9320 0.8925 0.0000
vt 0.9320 0.9480 0.0000
# 80 texture coords

g Box002
usemtl Wall2_Mat
s 1
f 1/1/1 2/2/1 3/3/2 4/4/3 
f 5/5/4 6/6/4 7/7/4 8/8/4 
f 9/9/5 10/10/6 11/11/7 12/12/8 
f 13/13/9 4/4/3 3/3/2 14/14/10 
f 15/15/11 16/16/12 17/17/13 18/18/14 
s 2
f 3/19/15 2/20/16 19/21/17 20/22/18 
f 7/23/19 21/24/20 22/25/21 8/26/19 
s 4
f 10/10/22 23/27/23 24/28/24 11/11/25 
s 2
f 14/29/26 3/19/15 20/22/18 25/30/27 
f 17/31/28 26/32/29 27/33/30 18/34/31 
s 1
f 28/35/32 29/36/33 30/37/33 31/38/34 
s 2
f 32/39/35 33/40/35 19/21/17 34/41/36 
f 27/33/30 35/42/37 36/43/38 21/24/20 
s 8
f 31/44/39 24/45/40 23/46/41 28/47/42 
s 2
f 37/48/43 38/49/44 25/30/27 20/22/18 
f 26/32/29 39/50/45 35/42/37 27/33/30 
s 1
f 40/51/1 41/52/1 2/2/1 1/1/1 
f 6/6/4 15/15/11 18/18/14 7/7/4 
s 2
f 2/20/16 41/53/16 34/41/36 19/21/17 
f 18/34/31 27/33/30 21/24/20 7/23/19 
s 1
f 29/36/33 42/54/46 43/55/46 30/37/33 
s 2
f 33/40/35 37/48/43 20/22/18 19/21/17 
f 44/56/38 22/25/21 21/24/20 36/43/38 
s 1
f 13/13/9 14/14/10 10/10/6 9/9/5 
f 11/11/7 17/17/13 16/16/12 12/12/8 
s 4
f 14/57/47 25/58/48 23/59/23 10/60/22 
f 24/45/24 26/61/49 17/62/50 11/63/25 
s 1
f 38/64/32 37/65/33 29/36/33 28/35/32 
f 35/66/51 39/67/52 31/38/34 30/37/33 
f 33/68/46 32/69/46 45/70/46 42/54/46 
f 44/71/46 36/72/46 43/55/46 46/73/46 
s 8
f 39/74/53 26/61/54 24/45/40 31/44/39 
f 23/46/41 25/75/55 38/76/56 28/47/42 
s 1
f 37/65/33 33/68/46 42/54/46 29/36/33 
f 36/72/46 35/66/51 30/37/33 43/55/46 
s 2
f 45/77/57 46/78/57 47/79/57 48/80/57 
# 36 polygons

